<?xml version="1.0" encoding="UTF-8"?>
<svg id="Lag_1" data-name="Lag 1" xmlns="http://www.w3.org/2000/svg" viewBox="0 0 461.47 461.49">
  <defs>
    <style>
      .cls-1, .cls-2 {
        fill: #f26f05;
      }

      .cls-3 {
        fill: #fff;
      }

      .cls-4 {
        fill: #ff0505;
      }

      .cls-5 {
        fill: #8ac8ff;
      }

      .cls-6, .cls-7 {
        fill: #cfa88a;
      }

      .cls-8 {
        fill: #a67c52;
      }

      .cls-9 {
        fill: #cb5900;
      }

      .cls-10 {
        fill: #34bf38;
      }

      .cls-11 {
        fill: #1a1a1a;
      }

      .cls-12 {
        fill: #603813;
      }

      .cls-2 {
        stroke: #f26f05;
      }

      .cls-2, .cls-7, .cls-13 {
        stroke-miterlimit: 10;
      }

      .cls-7 {
        stroke: #cfa88a;
      }

      .cls-13 {
        fill: #08ce99;
        stroke: #34bf38;
        stroke-width: 7px;
      }
    </style>
  </defs>
  <path class="cls-6" d="M362.34,147.83c1.61,8.95,8.08,81.51-23.38,113.58-11.36,11.58-24.79,16.97-33.39,20.42-5.17,2.08-19.88,7.56-69.26,7.66-34.61,.07-51.88-1.36-71.74-7.66-44.34-14.06-63.19-53.9-61.84-111.67,.13-5.55,.51-34.5,19.85-62.65,23.8-34.64,66.58-57.95,114.97-57.95,66.17,0,115.16,44.62,124.8,98.27Z"/>
  <path class="cls-10" d="M382.47,227.59c.32-9.99,.63-19.98,.6-29.98-.04-12.38-.7-24.74-1.39-37.1-.53-9.44-1.07-18.9-2.12-28.3-.86-7.75-1.96-15.52-3.99-23.06-5.53-20.58-16.45-39.48-30.17-55.66-13.52-15.95-30.59-29.42-49.39-38.6-14.25-6.96-29.15-11.24-44.86-13.35-20.02-2.69-40.88-1.94-60.56,2.82-23.07,5.58-44.19,17.57-61.4,33.85-16.15,15.28-28.57,34.16-36.62,54.84-3.19,8.2-5.62,16.75-6.87,25.47-1.18,8.22-1.69,16.43-1.84,24.73-.39,22.58-.06,45.26,1.51,67.79,.29,4.24,.63,8.48,1.02,12.71,.26,2.84,1,5.35,3.08,7.42,1.82,1.82,4.81,3.19,7.42,3.08s5.53-1.01,7.42-3.08c1.79-1.95,3.32-4.69,3.08-7.42-1.25-13.86-2.03-27.76-2.34-41.67-.32-14.45-.52-28.96-.07-43.41,.17-5.49,.5-10.98,1.22-16.42l-.38,2.79c1.4-10.29,4.4-20.34,8.42-29.9l-1.06,2.51c4.67-10.99,10.77-21.31,18.06-30.76l-1.64,2.13c7.14-9.2,15.38-17.5,24.58-24.64l-2.13,1.64c8.45-6.51,17.64-11.96,27.45-16.15l-2.51,1.06c10.46-4.41,21.46-7.32,32.7-8.85l-2.79,.38c14.18-1.89,28.66-2,42.84-.1l-2.79-.38c11.78,1.61,23.41,4.49,34.37,9.11l-2.51-1.06c11.16,4.74,21.63,10.97,31.23,18.36l-2.13-1.64c10.05,7.78,19.1,16.81,26.89,26.87l-1.64-2.13c7.21,9.38,13.28,19.59,17.9,30.49l-1.06-2.51c4.19,9.98,6.91,20.27,8.36,30.98l-.38-2.79c1.54,11.52,2.15,23.15,2.79,34.75,.84,15.15,1.46,30.26,1.22,45.43-.1,6.58-.32,13.17-.53,19.75-.18,5.5,4.96,10.75,10.5,10.5,5.84-.26,10.31-4.61,10.5-10.5h0Z"/>
  <path class="cls-13" d="M3.61,164.89c.25-10.42,.92-28.32,12.79-45.91,2.7-4,8.14-11.89,17.71-18.15,23-15.03,50.12-7.72,55.96-6.01-.4,45.71-.8,91.43-1.2,137.14-7.2,2.17-30.03,8.02-52.89-3.22-4.1-2.01-13.05-6.53-20.62-16.19-12.51-15.95-12.07-34.19-11.74-47.68Z"/>
  <g>
    <ellipse class="cls-3" cx="179.71" cy="164.02" rx="30.05" ry="33.18"/>
    <ellipse class="cls-12" cx="183.29" cy="168.89" rx="20.46" ry="24.89"/>
    <ellipse cx="184.83" cy="171.33" rx="18.8" ry="17.26" transform="translate(-26.98 307.9) rotate(-75.64)"/>
    <ellipse class="cls-3" cx="171.15" cy="154.85" rx="7.03" ry="7.02"/>
    <ellipse class="cls-3" cx="198" cy="182.92" rx="4.48" ry="4.47"/>
  </g>
  <g>
    <ellipse class="cls-3" cx="284.97" cy="163.14" rx="30.05" ry="33.18"/>
    <ellipse class="cls-12" cx="281.77" cy="168.89" rx="20.46" ry="24.89"/>
    <ellipse cx="282.41" cy="169.18" rx="17.26" ry="18.8"/>
    <ellipse class="cls-3" cx="293.92" cy="153.57" rx="7.03" ry="7.02"/>
    <ellipse class="cls-3" cx="265.78" cy="181.65" rx="4.48" ry="4.47"/>
  </g>
  <polyline class="cls-12" points="368.17 117.53 338.83 108.13 350.83 136.52 327.52 108.13 326.53 148.77 307.35 114.31 307.35 137.62 276.01 114.31 290.72 136.44 267.06 123.44 267.06 143.72 228.06 119.07 236.73 137.93 191.96 122.05 189.05 138.7 173.06 132.91 159 150.93 151.32 134.36 109.78 153.81 124.47 128.69 94.41 138.68 77.15 140.17 111.68 122.31 114.24 112.1 334.2 96.78"/>
  <path class="cls-1" d="M331.4,101.59l-1.75-24.02c-10.96-39.45-67.51-42.61-122.06-38.66-65.83,4.77-97.84,32.21-95.91,66.81,.24,4.34,.3,8.44,1.28,11.49,71.85-5.21,146.59-10.4,218.44-15.61Z"/>
  <ellipse class="cls-4" cx="144.29" cy="217.38" rx="22.38" ry="22.33"/>
  <ellipse class="cls-4" cx="323.33" cy="214.83" rx="21.1" ry="21.06"/>
  <ellipse class="cls-8" cx="233.17" cy="201.43" rx="7.67" ry="5.1"/>
  <path class="cls-13" d="M457.59,166.58c-.56-10.4-1.75-28.28-14.15-45.51-2.82-3.92-8.49-11.64-18.24-17.62-23.44-14.35-50.33-6.24-56.12-4.35,1.76,45.68,3.51,91.36,5.27,137.05,7.26,1.96,30.25,7.13,52.78-4.78,4.04-2.13,12.85-6.92,20.14-16.79,12.03-16.31,11.05-34.54,10.33-48Z"/>
  <path class="cls-11" d="M251.26,248.65c.71-2.4,1.1-4.97,1.1-7.66,0-12.69-8.59-22.97-19.18-22.97s-19.18,10.28-19.18,22.97c0,2.69,.39,5.26,1.1,7.66h36.17Z"/>
  <path class="cls-9" d="M329.97,106.42c39.71-8.36,47.94-13.71,47.73-17.1-.41-6.57-32.88-10.82-58.5-10.71-29.09,.13-50.97,5.89-58.41,7.84-48.74,12.79-99.24,24.37-115.86,28.2-2.66,.61,39.09,2.75,185.04-8.23Z"/>
  <g>
    <path class="cls-5" d="M340.44,132.6c-7.32,13.28-10.06,24.93-5.85,29.05,2.83,2.77,5.85,2.77,5.85,2.77s3.02,0,5.85-2.77c4.21-4.12,1.47-15.77-5.85-29.05Z"/>
    <path class="cls-3" d="M341.48,161c2.27-.66,4.09-2.43,4.85-4.66,.19-.56-.22-1.25-.79-1.38-.63-.14-1.18,.19-1.38,.79-.04,.11-.08,.22-.13,.34,.13-.36-.02,.03-.06,.11-.1,.2-.21,.39-.33,.57-.07,.1-.13,.2-.2,.3-.05,.06-.19,.22,.03-.04-.04,.05-.08,.09-.11,.14-.15,.18-.31,.34-.47,.5-.08,.08-.16,.15-.25,.22-.05,.04-.09,.08-.14,.12-.17,.14,.22-.16,.04-.03s-.38,.26-.58,.38-.41,.21-.62,.31c.35-.17-.03,0-.12,.04-.11,.04-.23,.08-.34,.11-.56,.16-.97,.8-.79,1.38s.78,.96,1.38,.79h0Z"/>
  </g>
  <path class="cls-3" d="M399.34,113.65c.58,.05,1.16,.1,1.74,.16,.54,.07,.56,.07,.05,0,.27,.04,.53,.08,.8,.13,.89,.15,1.78,.34,2.66,.56s1.66,.46,2.47,.74c.45,.15,.9,.32,1.35,.49,.39,.15,.95,.42,.24,.09,3.33,1.52,6.49,3.39,9.53,5.41,.81,.54,1.61,1.09,2.39,1.67,.32,.23,.63,.47,.94,.7-.78-.6,.5,.41,.63,.52,1.47,1.21,2.87,2.5,4.17,3.89,.31,.33,.61,.67,.91,1.02,.11,.13,1.13,1.4,.52,.6,.54,.71,1.05,1.45,1.52,2.22s.86,1.56,1.28,2.35c.21,.47,.21,.46,0-.03,.1,.24,.19,.47,.28,.71,.18,.48,.33,.96,.48,1.45,.67,2.25,3.19,3.9,5.54,3.14s3.86-3.12,3.14-5.54c-2.63-8.8-9.54-15.26-16.95-20.25-3.23-2.18-6.6-4.22-10.18-5.77-4.36-1.89-8.78-2.89-13.52-3.26-2.35-.18-4.6,2.2-4.5,4.5,.12,2.6,1.98,4.3,4.5,4.5h0Z"/>
  <path class="cls-3" d="M294.17,58.41c.49,.02,.98,.05,1.46,.1,.05,0,.64,.08,.36,.04-.33-.05,.41,.07,.47,.09,.78,.15,1.54,.34,2.3,.58,.39,.13,.78,.26,1.16,.41,.17,.07,.34,.13,.52,.2,.83,.33-.29-.13,.19,.08,.8,.35,1.59,.71,2.37,1.1,1.52,.76,3.03,1.6,4.37,2.64-.25-.19-.08-.06,.06,.06,.18,.15,.35,.3,.53,.46,.27,.25,.53,.51,.78,.78,.15,.17,.3,.34,.44,.51-.19-.22-.13-.19,.01,.03,.24,.36,.47,.73,.67,1.11,.73,1.39,2.79,1.92,4.1,1.08,1.42-.92,1.85-2.61,1.08-4.1-1.86-3.58-5.5-5.99-9.02-7.74-3.79-1.89-7.59-3.23-11.86-3.41-1.57-.07-3.07,1.43-3,3,.08,1.68,1.32,2.93,3,3h0Z"/>
  <path class="cls-6" d="M268.25,311.61c10.33,1.64,20.78,5.12,27.75,13.33,2.9,3.41,5.02,7.67,5.65,12.13,.36,2.55-.02,4.72-1.74,6.68-1.63,1.85-3.51,3.51-5.53,4.93-4.73,3.31-10.1,5.38-15.82,6.16-1.61,.22-2.48,2.28-2.1,3.69,.48,1.73,2.08,2.32,3.69,2.1,5.76-.79,11.37-2.91,16.24-6.08s10.74-7.92,11.33-14.3c.53-5.7-1.92-11.87-5.12-16.48s-7.78-8.73-12.9-11.56c-6.13-3.39-12.96-5.29-19.85-6.38-1.6-.25-3.23,.41-3.69,2.1-.39,1.43,.49,3.43,2.1,3.69h0Z"/>
  <path class="cls-6" d="M193.44,306.01c-9.73,8.54-17.6,19.22-21.91,31.49-2.21,6.27-4.48,13.7-2.12,20.24,1.53,4.23,4.48,6.69,8.14,9.11,6.3,4.18,13.06,7.74,19.92,10.87,1.47,.67,3.23,.42,4.1-1.08,.75-1.29,.4-3.43-1.08-4.1-5.74-2.62-11.32-5.58-16.72-8.85-1.32-.8-2.62-1.62-3.89-2.49-.47-.32-.94-.66-1.4-1-.1-.07-.47-.36,.02,.02-.23-.18-.45-.36-.68-.55-.51-.43-.97-.9-1.43-1.38-.56-.59,.14,.27,0,.03-.12-.21-.29-.41-.42-.62-3.12-5.08-.97-11.6,.72-16.82,2-6.17,4.97-11.94,8.71-17.23,3.47-4.92,7.7-9.4,12.26-13.4,1.22-1.07,1.09-3.15,0-4.24-1.21-1.21-3.02-1.07-4.24,0h0Z"/>
  <polygon class="cls-7" points="230.04 359.45 224.12 359.37 209.28 447.46 214.61 448.2 230.04 359.45"/>
  <path class="cls-6" d="M243.21,286.97c-.63,9.71,.04,21.4-11.65,21.38-10.13-.02-8.73-13.02-10.17-21.42"/>
  <polygon class="cls-7" points="237.11 360.66 243.55 360.66 259.66 446.95 253.86 447.6 237.11 360.66"/>
  <path class="cls-2" d="M221.09,297.87c-9.04-4.77-30.86,2.42-30.86,7.25,0,8.1,4.75,12.08,10.68,15.7,7.2,4.39,7.61-2.92,10.68-1.46,5.88,2.79-16.45,41.52,0,46.75,9.5,3.02,27.3,4.23,43.04,0s-5.74-43.21,0-45.89c2.83-1.32,6.06,4.02,10.38,1.82,2.37-1.21,9.5-7.25,8.31-18.11-.37-3.39-23.91-10.47-32.05-4.77-4.57,3.2-4.67,8.5-8.31,8.84-4.28,.41-5.59-6.79-11.87-10.11Z"/>
  <ellipse class="cls-10" cx="209.81" cy="379.37" rx="13.06" ry="13.28"/>
  <ellipse class="cls-10" cx="258.48" cy="448.2" rx="13.06" ry="13.28"/>
  <ellipse class="cls-10" cx="209.81" cy="447" rx="13.06" ry="13.28"/>
  <g>
    <ellipse class="cls-10" cx="271.53" cy="361.26" rx="13.06" ry="13.28"/>
    <path class="cls-10" d="M271.53,347.98c-4.92,0-17.81,1.21-15.43,7.25,.85,2.17,8.73,1.21,13.65,1.21s8.9-1.89,8.9-4.23-2.21-4.23-7.12-4.23Z"/>
  </g>
  <path class="cls-10" d="M212.84,365.64c4.87,.66,17.49,3.6,14.35,9.27-1.13,2.03-8.81,.02-13.69-.65-4.87-.66-8.58-3.08-8.27-5.39s2.74-3.89,7.61-3.23Z"/>
</svg>