<?xml version="1.0" encoding="UTF-8"?>
<svg id="Lag_11" data-name="Lag 11" xmlns="http://www.w3.org/2000/svg" viewBox="0 0 93 93">
  <defs>
    <style>
      .cls-1 {
        fill: none;
      }

      .cls-2 {
        fill: #f7d3c1;
      }

      .cls-3 {
        fill: #fff;
      }

      .cls-4 {
        fill: red;
      }
    </style>
  </defs>
  <g>
    <ellipse cx="46.5" cy="46.5" rx="46.15" ry="45.63" transform="translate(-7.32 8.71) rotate(-9.92)"/>
    <path d="M46.92,89.36l-.59-42.83c-14.42,.27-28.84,.54-43.27,.81,.07,3.67,.78,16.43,10.65,27.55,12.7,14.3,30.45,14.49,33.2,14.47Z"/>
    <path d="M46.08,3.54l.27,42.84c14.42-.16,28.85-.33,43.27-.49-.04-3.67-.65-16.44-10.44-27.63C66.58,3.87,48.84,3.54,46.08,3.54Z"/>
    <ellipse class="cls-2" cx="46.18" cy="46.36" rx="1.83" ry="1.81" transform="translate(-7.3 8.65) rotate(-9.92)"/>
    <path class="cls-1" d="M57.46,48.57c-.02,.11-.06,.31-.12,.56"/>
    <path class="cls-1" d="M57.47,44.59c.11,.59,.16,1.19,.17,1.81"/>
    <path class="cls-1" d="M55.97,40.71c.29,.46,.54,.94,.76,1.43"/>
    <path class="cls-1" d="M49.49,35.89c1.33,.37,2.57,.98,3.65,1.78"/>
    <path class="cls-1" d="M45.18,35.55c.36-.04,.72-.06,1.08-.07"/>
    <path class="cls-1" d="M35.24,47.75c-.03-.32-.05-.64-.06-.97"/>
    <path class="cls-1" d="M37.39,53.23c-.36-.48-.68-.99-.96-1.52"/>
    <path class="cls-1" d="M39.6,55.44c-.39-.29-.76-.61-1.11-.95"/>
    <path class="cls-1" d="M46.57,57.7c-.77,.01-1.53-.05-2.26-.19"/>
    <path class="cls-2" d="M46.47,47.86c1.93,0,1.93-3,0-3s-1.93,3,0,3h0Z"/>
  </g>
  <ellipse class="cls-4" cx="46.28" cy="46.02" rx="17.56" ry="17.15" transform="translate(-2.15 2.27) rotate(-2.74)"/>
  <path class="cls-3" d="M57.65,11.78c2.5,.11,5.26,1.12,7.5,2.3s4.88,2.72,6.2,4.98c.97,1.67,3.57,.16,2.59-1.51-1.58-2.72-4.56-4.62-7.28-6.06s-5.92-2.58-9.01-2.71c-1.93-.08-1.93,2.92,0,3h0Z"/>
</svg>