<?xml version="1.0" encoding="UTF-8"?>
<svg id="Lag_1" data-name="Lag 1" xmlns="http://www.w3.org/2000/svg" viewBox="0 0 332.51 472.84">
  <defs>
    <style>
      .cls-1 {
        fill: #f26f05;
      }

      .cls-2 {
        fill: #ffe001;
      }

      .cls-3 {
        fill: #fff;
      }

      .cls-4 {
        fill: #ff0505;
      }

      .cls-5 {
        fill: #201d73;
      }

      .cls-6 {
        fill: #08ce99;
      }
    </style>
  </defs>
  <polygon class="cls-5" points="134.88 369.8 128.96 369.72 114.12 457.81 119.44 458.55 134.88 369.8"/>
  <polygon class="cls-5" points="212.95 372.01 219.39 372.01 235.5 458.3 229.7 458.95 212.95 372.01"/>
  <path class="cls-5" d="M52.2,171.39c-12.35-.72-24.74-4.28-35.25-11.4-4.09-2.77-8.87-6.12-10.3-10.86-.1-.34-.19-.68-.26-1.03-.03-.12-.17-1.28-.08-.37-.02-.21-.04-.42-.05-.63-.02-.53,.03-1.06,.08-1.59-.1,1.09,.05-.17,.11-.44,.08-.36,.16-.72,.26-1.08,.33-1.27,.74-2.52,1.17-3.76,2.3-6.62,5.2-13.05,8.43-19.26,.75-1.44,.37-3.26-1.08-4.1-1.35-.79-3.35-.37-4.1,1.08-3.17,6.09-5.97,12.38-8.36,18.81-1.4,3.78-2.91,7.8-2.33,11.89,.93,6.53,6.01,11.21,11.09,14.87,5.95,4.29,12.43,7.67,19.39,9.98,6.87,2.28,14.08,3.49,21.3,3.91,1.62,.09,3-1.45,3-3,0-1.7-1.38-2.91-3-3h0Z"/>
  <path class="cls-5" d="M292.98,175.52c10.33,1.64,20.78,5.12,27.75,13.33,2.9,3.41,5.02,7.67,5.65,12.13,.36,2.55-.02,4.72-1.74,6.68-1.63,1.85-3.51,3.51-5.53,4.93-4.73,3.31-10.1,5.38-15.82,6.16-1.61,.22-2.48,2.28-2.1,3.69,.48,1.73,2.08,2.32,3.69,2.1,5.76-.79,11.37-2.91,16.24-6.08s10.74-7.92,11.33-14.3c.53-5.7-1.92-11.87-5.12-16.48s-7.78-8.73-12.9-11.56c-6.13-3.39-12.96-5.29-19.85-6.38-1.6-.25-3.23,.41-3.69,2.1-.39,1.43,.49,3.43,2.1,3.69h0Z"/>
  <rect class="cls-4" x="52.98" width="241.5" height="382"/>
  <rect class="cls-1" x="64.53" y="11" width="217.95" height="359.69" rx="20.41" ry="20.41"/>
  <rect class="cls-4" x="89.48" y="38.5" width="71" height="152"/>
  <rect class="cls-4" x="89.48" y="243.5" width="71" height="103"/>
  <rect class="cls-4" x="185.48" y="38.5" width="71" height="152"/>
  <rect class="cls-4" x="185.48" y="243.5" width="71" height="103"/>
  <rect class="cls-1" x="99.48" y="46.5" width="52" height="136"/>
  <rect class="cls-1" x="195.48" y="46.5" width="52" height="136"/>
  <rect class="cls-1" x="99.48" y="253.5" width="52" height="83"/>
  <rect class="cls-1" x="195.48" y="253.5" width="52" height="83"/>
  <circle class="cls-2" cx="87.98" cy="213" r="13.5"/>
  <path class="cls-3" d="M87.46,204.04c.38-.04,.77-.06,1.15-.05,.19,0,.38,.02,.57,.04,.26,.03-.06,0-.06,0,0,0,.33,.06,.34,.06,.36,.07,.71,.17,1.06,.29,.09,.03,.18,.07,.27,.1,.27,.1-.15-.08,.01,0s.35,.16,.52,.25c.32,.17,.64,.36,.93,.58,0,0,.29,.23,.13,.09s.08,.07,.12,.1c.15,.12,.29,.25,.43,.39s.27,.27,.4,.42c.05,.06,.1,.12,.15,.18,.25,.29-.17-.25,.05,.06s.43,.64,.6,.98c.36,.7,1.39,.96,2.05,.54,.71-.46,.93-1.31,.54-2.05-1.71-3.28-5.57-5.39-9.25-4.96-.78,.09-1.54,.62-1.5,1.5,.03,.73,.67,1.6,1.5,1.5h0Z"/>
  <g>
    <ellipse class="cls-3" cx="209.77" cy="112.54" rx="24.71" ry="19.77" transform="translate(71.92 306.63) rotate(-82.83)"/>
    <ellipse class="cls-6" cx="207.15" cy="116.52" rx="18.53" ry="13.46" transform="translate(65.68 307.51) rotate(-82.83)"/>
    <ellipse cx="207.54" cy="116.79" rx="14" ry="11.36" transform="translate(65.76 308.13) rotate(-82.83)"/>
    <ellipse class="cls-3" cx="216.51" cy="106.21" rx="5.23" ry="4.63" transform="translate(84.1 307.76) rotate(-82.83)"/>
    <ellipse class="cls-3" cx="195.53" cy="124.64" rx="3.33" ry="2.95" transform="translate(47.46 303.08) rotate(-82.83)"/>
  </g>
  <g>
    <ellipse class="cls-3" cx="135.03" cy="113.42" rx="19.77" ry="24.71" transform="translate(-13.1 17.74) rotate(-7.17)"/>
    <ellipse class="cls-6" cx="137.65" cy="117.4" rx="13.46" ry="18.53" transform="translate(-13.58 18.1) rotate(-7.17)"/>
    <ellipse cx="137.26" cy="117.67" rx="11.36" ry="14" transform="translate(-13.62 18.06) rotate(-7.17)"/>
    <ellipse class="cls-3" cx="128.3" cy="107.08" rx="4.63" ry="5.23" transform="translate(-12.36 16.85) rotate(-7.17)"/>
    <ellipse class="cls-3" cx="149.27" cy="125.51" rx="2.95" ry="3.33" transform="translate(-14.5 19.62) rotate(-7.17)"/>
  </g>
  <rect class="cls-5" x="175.48" y="87.5" width="64" height="14" transform="translate(-20.48 98.28) rotate(-25.44)"/>
  <rect class="cls-5" x="103.03" y="87.42" width="64" height="14" transform="translate(216.41 237.69) rotate(-154.56)"/>
  <rect class="cls-5" x="132.48" y="265.5" width="83" height="17"/>
  <g>
    <ellipse class="cls-2" cx="298.27" cy="226.18" rx="13.06" ry="13.28"/>
    <path class="cls-2" d="M298.27,212.9c-4.92,0-17.81,1.21-15.43,7.25,.85,2.17,8.73,1.21,13.65,1.21s8.9-1.89,8.9-4.23-2.21-4.23-7.12-4.23Z"/>
  </g>
  <g>
    <ellipse class="cls-2" cx="13.35" cy="115.15" rx="13" ry="13.5" transform="translate(-90.42 63.48) rotate(-56.91)"/>
    <path class="cls-2" d="M2.34,107.95c2.68-4.12,10.73-14.26,14.49-8.97,1.35,1.9-3.76,7.98-6.44,12.1s-6.45,6.43-8.4,5.15c-1.96-1.27-2.34-4.15,.35-8.27Z"/>
  </g>
  <ellipse class="cls-2" cx="234.31" cy="459.55" rx="13.06" ry="13.28"/>
  <ellipse class="cls-2" cx="114.65" cy="459.35" rx="13.06" ry="13.28"/>
</svg>