<?xml version="1.0" encoding="UTF-8"?>
<svg id="Lag_1" data-name="Lag 1" xmlns="http://www.w3.org/2000/svg" viewBox="0 0 381.41 588.26">
  <defs>
    <style>
      .cls-1 {
        fill: #f205b3;
      }

      .cls-2, .cls-3 {
        fill: #f26398;
      }

      .cls-4 {
        fill: #fff;
      }

      .cls-5 {
        fill: #f2d5c4;
      }

      .cls-6 {
        fill: #9301cc;
      }

      .cls-7 {
        fill: #34bf38;
      }

      .cls-8 {
        fill: #603813;
      }

      .cls-3 {
        stroke: #f205b3;
        stroke-miterlimit: 10;
        stroke-width: 2px;
      }
    </style>
  </defs>
  <path class="cls-5" d="M51.94,342.39c-6.38-1.85-12.67-4.41-17.99-8.47-3.11-2.38-6.19-5.09-9.01-7.81-3.37-3.26-5.63-6.18-7.62-10.59-1.57-3.48-2.84-8.65-2.53-12.9,.15-2.07,.32-4.14,.54-6.2,.06-.52,.12-1.05,.18-1.57,.02-.12,.14-.97,.02-.19,.05-.3,.09-.61,.14-.91,.07-.45,.15-.89,.26-1.33,.09-.36,.53-1.34,0-.25,.7-1.46,.4-3.24-1.08-4.1-1.31-.77-3.4-.39-4.1,1.08-.87,1.8-1.02,3.88-1.26,5.84-.26,2.13-.45,4.27-.62,6.41-.37,4.82,.44,9.79,2.1,14.33,1.82,4.99,4.69,9.43,8.36,13.27,2.74,2.87,5.87,5.35,8.87,7.94,6.36,5.5,14.12,8.93,22.14,11.25,3.72,1.08,5.3-4.71,1.6-5.79h0Z"/>
  <g>
    <ellipse class="cls-6" cx="13.62" cy="282.88" rx="13.28" ry="13.06" transform="translate(-28.33 2.8) rotate(-5.76)"/>
    <path class="cls-6" d="M.2,282.22c-.49-4.89-.59-17.84,5.66-16.08,2.24,.63,2.08,8.57,2.57,13.46,.49,4.89-.99,9.05-3.31,9.28s-4.43-1.77-4.92-6.66Z"/>
  </g>
  <path class="cls-5" d="M213.89,402.38c7.38-1.17,14.74-3.27,21.18-7.15,3.52-2.13,7.07-4.47,10.34-6.97,4.04-3.11,7.59-6.75,10.19-11.17s4.59-9.79,4.87-14.94c.12-2.18,.21-4.37,.24-6.56,.03-2.01,.25-4.45-.4-6.38-.52-1.54-2.07-2.54-3.69-2.1-1.5,.41-2.61,2.15-2.1,3.69,.03,.1,.06,.2,.08,.3,.17,.6-.15-.25-.02-.25,.03,0,.08,1.01,.09,1.09,.05,1.04,.05,2.08,.04,3.12-.02,1.99-.1,3.99-.19,5.98-.03,.54-.07,1.09-.09,1.63,0,.11,0,.22-.02,.33,.09-1.03-.09,.3-.11,.43-.1,.52-.21,1.05-.34,1.56-.66,2.79-1.52,5.27-2.77,7.66-1.17,2.24-2.43,4.08-3.82,5.68s-3.01,3.14-4.7,4.51c-.2,.16-.4,.32-.6,.48,.54-.43-.12,.09-.19,.14-.39,.3-.79,.58-1.19,.87-.76,.54-1.54,1.07-2.32,1.58-1.38,.91-2.78,1.79-4.15,2.72-6.58,4.48-14.12,6.72-21.92,7.96-1.6,.25-2.49,2.25-2.1,3.69,.47,1.71,2.08,2.35,3.69,2.1h0Z"/>
  <g>
    <ellipse class="cls-6" cx="258.73" cy="343.29" rx="13.06" ry="13.28" transform="translate(-133.76 518.63) rotate(-77.07)"/>
    <path class="cls-6" d="M272.12,344.32c1.1-4.79,2.81-17.62-3.61-16.66-2.3,.35-3.13,8.24-4.23,13.03s-.15,9.1,2.13,9.62,4.61-1.2,5.71-6Z"/>
  </g>
  <polygon class="cls-5" points="117.27 485.43 111.35 485.34 96.51 573.44 101.84 574.18 117.27 485.43"/>
  <polygon class="cls-5" points="156.34 487 162.78 487 178.89 573.29 173.09 573.94 156.34 487"/>
  <ellipse class="cls-6" cx="178.7" cy="574.18" rx="13.06" ry="13.28"/>
  <ellipse class="cls-6" cx="97.04" cy="574.97" rx="13.06" ry="13.28"/>
  <path class="cls-5" d="M266.41,111c-2.29-4.92-6.76-12.86-15-20-3.97-3.44-15.87-13.46-33-14-16.56-.52-38.08,7.8-40,21-.73,5.02,1.4,10.56,5,14,9.82,9.39,32.95,5.41,57.22-10.82"/>
  <path class="cls-5" d="M252.96,118.23c1.24-5.49,2.54-14.96-.05-26.8-1.24-5.71-5.16-22.58-20.02-36.46-14.37-13.42-39.02-24.11-49.49-15.72-3.98,3.19-5.77,9.02-4.85,14.43,2.49,14.77,25.68,29.98,58.03,36.9"/>
  <path class="cls-5" d="M237.57,120.35c4.13-3.82,11.67-9.69,23.21-13.4,5.56-1.79,22.12-6.85,41.59-.95,18.82,5.7,40.42,21.67,38.41,34.94-.77,5.04-4.91,9.51-10.06,11.44-14.03,5.25-38.81-7.2-61.02-31.72"/>
  <path class="cls-5" d="M254.82,128.24c.46-5.55,2-14.82,7.79-25.05,2.79-4.93,11.25-19.41,28.88-27.51,17.04-7.82,42.71-9.7,49.87,1.59,2.72,4.29,2.68,10.34,.28,15.1-6.55,12.99-32.19,19.58-63.82,15.4"/>
  <path class="cls-5" d="M207.51,115.83c5.59-.65,14.95-2.56,25.27-8.92,4.97-3.07,19.59-12.35,27.77-30.97,7.91-18,9.83-44.8-1.56-51.9-4.33-2.7-10.42-2.45-15.23,.2-13.11,7.24-19.77,34.16-15.59,66.98"/>
  <path class="cls-5" d="M256.12,139.4c-3.09-4.98-7.62-13.97-9.18-27.34-.75-6.45-2.75-25.61,6.94-47.24,9.36-20.91,29.68-44.21,42.76-40.92,4.97,1.25,8.72,6.29,9.69,12.27,2.66,16.31-14.68,43.48-43.79,66.81"/>
  <ellipse class="cls-5" cx="163.41" cy="120" rx="13" ry="12"/>
  <circle class="cls-5" cx="171.91" cy="147.5" r="4.5"/>
  <ellipse class="cls-5" cx="358.41" cy="76" rx="10" ry="9"/>
  <circle class="cls-5" cx="374.91" cy="99.5" r="6.5"/>
  <circle class="cls-5" cx="239.91" cy="13.5" r="6.5"/>
  <circle class="cls-5" cx="258.91" cy="4.5" r="4.5"/>
  <circle class="cls-5" cx="319.41" cy="165" r="6"/>
  <g>
    <path class="cls-2" d="M237.5,207.81c3.69-9.47,7.53-18.38,11.42-26.71,.08-.19,.17-.38,.26-.56l21.01-42.21c2.7-5.42,.32-11.91-5.32-14.53l-25.11-11.67c-5.66-2.63-12.47-.39-15.25,5.01l-33.37,64.92c-.24,.4-.48,.8-.72,1.2-8.65,14.31-25.24,37.38-40.26,51.08-13.13,11.74-15.61,13.69-34.2,26.49-.62,.59-1.17,1.25-1.63,1.96l-22.43,34.57c-.2,.31-.38,.62-.55,.94L18.5,440.12c-.64,1.24-1.09,2.58-1.19,3.97-.37,4.99,2.63,9.28,7.04,11.02l91.18,36.06c1.39,.55,2.86,.83,4.35,.83h5.96c4.4,0,8.42-2.42,10.31-6.23l53.76-107.83,17.62-35.34c1.64-3.3,2.96-6.73,3.94-10.26,.88-3.19,3.05-11.04,5.17-18.7,2.02-7.29,3.99-14.41,4.76-17.21,.12-.74,.32-1.48,.37-2.24,1-16.26,2-32.51,3-48.77,.92-3.18,10.39-31.63,12.72-37.61Z"/>
    <path class="cls-2" d="M178.41,201c-11.78,17.18-31.2,40.5-62.09,59.76-6.64,4.14-11.46,6.63-13.01,7.47-23.06,12.46-52.91,54.27-85.87,176.75"/>
    <path class="cls-2" d="M190.86,190.38c4.99-8.91,9.43-17.56,13.39-25.86,.09-.18,.18-.37,.27-.56l19.2-42.99c2.47-5.52,9.12-8.11,14.92-5.79l25.76,10.3c5.8,2.32,8.55,8.69,6.16,14.25l-28.83,66.88c-.16,.44-.31,.87-.47,1.31-5.5,15.67-12.62,42.83-13.43,62.67-.51,17.19-.41,20.26,1.84,42.06-.05,.84-.21,1.67-.46,2.47l-12.27,38.95c-.11,.34-.23,.68-.38,1.02l-63.03,146.15c-1.27,2.95-3.83,5.22-6.99,6.21-2.84,.89-5.92,.69-8.6-.57l-88.57-41.59c-1.34-.63-2.55-1.51-3.54-2.58l-3.93-4.27c-2.91-3.16-3.67-7.64-1.94-11.52l48.99-109.89,16.06-36.02c1.5-3.36,3.32-6.58,5.44-9.61,1.92-2.75,6.64-9.49,11.24-16.08,4.38-6.27,8.66-12.4,10.35-14.8,.5-.58,.95-1.21,1.51-1.74,12.08-11.47,24.17-22.94,36.25-34.41,1.89-2.76,17.93-28.37,21.08-34Z"/>
    <path class="cls-2" d="M235.5,228.08c-5.68,19.82-11.12,49.17-5.8,84.08,1.14,7.5,2.38,12.61,2.75,14.28,5.48,24.79-7.56,73.86-81.79,178.52"/>
  </g>
  <circle class="cls-5" cx="139.41" cy="153" r="5"/>
  <path class="cls-4" d="M294.42,28.35c.26,.03,0,0,.14,.02,.13,.02,.25,.05,.38,.08,.23,.06,.45,.12,.67,.2,.06,.02,.32,.14,.15,.05,.12,.05,.23,.11,.35,.17,.21,.11,.41,.23,.61,.36,.25,.17,.34,.23,.45,.33,.2,.17,.39,.35,.58,.54,.17,.17,.32,.35,.47,.53,.06,.08,.07,.08,0,0l.09,.13c.07,.11,.15,.22,.22,.33,1.18,1.84,1.49,3.9,1.38,6.09-.04,.81,.72,1.5,1.5,1.5,.84,0,1.46-.69,1.5-1.5,.13-2.7-.39-5.61-1.97-7.86s-3.83-3.69-6.54-3.97c-.81-.08-1.5,.75-1.5,1.5,0,.88,.69,1.42,1.5,1.5h0Z"/>
  <path class="cls-4" d="M331.54,76.38c.36,.04-.22-.05,.1,0,.12,.02,.25,.04,.37,.07,.25,.05,.49,.12,.73,.2,.12,.04,.24,.08,.36,.13,.39,.14-.27-.13,.1,.04,.23,.11,.45,.22,.67,.35s.43,.26,.64,.41c.03,.02,.36,.28,.1,.07,.1,.08,.2,.16,.29,.24,.38,.33,.73,.7,1.06,1.09,.2,.24-.12-.19,.08,.1,.07,.1,.15,.21,.22,.31,.14,.21,.27,.43,.39,.65s.23,.45,.33,.68c-.11-.24,0,0,.04,.11,.04,.12,.08,.24,.12,.36,.08,.24,.14,.48,.2,.73,.02,.1,.04,.2,.06,.31,.01,.06,.02,.12,.03,.19-.02-.17-.03-.2-.01-.09,.03,.53,.05,1.04,0,1.57-.08,.78,.75,1.53,1.5,1.5,.88-.04,1.42-.66,1.5-1.5,.26-2.56-.73-5.07-2.33-7.04s-3.99-3.23-6.54-3.48c-.78-.08-1.53,.75-1.5,1.5,.04,.88,.66,1.42,1.5,1.5h0Z"/>
  <path class="cls-4" d="M338.71,141.65c-.02-5.52-.52-12.18-5.96-15.18-1.69-.93-3.21,1.66-1.51,2.59,4.41,2.43,4.46,8.2,4.47,12.59,0,1.93,3.01,1.93,3,0h0Z"/>
  <path class="cls-4" d="M360.01,71.43c-.53,.07,.01,.01,.15,0,.17,0,.34,0,.51,.02,.33,.03-.25-.04-.09-.01,.08,.02,.15,.03,.23,.04,.15,.03,.3,.07,.45,.12,.07,.02,.15,.05,.22,.08,.33,.12-.29-.14-.03-.02,.14,.07,.28,.14,.42,.21s.27,.16,.4,.25c.06,.04,.12,.1,.19,.14l-.18-.14s.08,.07,.12,.1c.24,.2,.46,.43,.67,.67,.07,.09,.2,.31-.04-.06,.04,.07,.09,.13,.14,.19,.09,.13,.17,.26,.24,.4,.04,.07,.07,.14,.11,.21,.02,.05,.04,.09,.07,.14l-.09-.22c.07,.13,.11,.3,.16,.44,.05,.16,.09,.33,.12,.49,.06,.33-.02-.25,0-.09,0,.09,.02,.18,.02,.28,.04,.78,.66,1.54,1.5,1.5,.78-.03,1.54-.66,1.5-1.5-.09-1.78-.93-3.5-2.32-4.63-.74-.6-1.53-1.07-2.44-1.35s-1.85-.3-2.8-.17c-.34,.05-.73,.41-.9,.69-.19,.32-.27,.8-.15,1.16s.34,.71,.69,.9c.38,.2,.73,.21,1.16,.15h0Z"/>
  <path class="cls-4" d="M239.21,11.01c.18-.05,.35-.09,.53-.11l-.4,.05c.36-.04,.72-.04,1.08,0l-.4-.05c.38,.06,.75,.16,1.11,.31l-.36-.15c.23,.1,.45,.22,.66,.35,.06,.04,.11,.07,.17,.11,.11,.07,.23,.23-.09-.07,.09,.09,.19,.16,.28,.25s.18,.18,.26,.27c.04,.04,.11,.1,.13,.16-.02-.05-.24-.32-.09-.11s.27,.44,.38,.68l-.15-.36s.03,.08,.05,.13c.15,.38,.33,.69,.69,.9,.32,.19,.8,.27,1.16,.15,.71-.23,1.35-1.06,1.05-1.85-.52-1.32-1.45-2.44-2.73-3.08s-2.74-.86-4.13-.47c-.76,.21-1.3,1.07-1.05,1.85s1.03,1.27,1.85,1.05h0Z"/>
  <path class="cls-4" d="M167.04,112.65c1.74,.61,3.23,1.94,4.1,3.63,.93,1.81,.99,4.18,.15,6.07-.33,.74-.22,1.61,.54,2.05,.64,.37,1.72,.21,2.05-.54,1.27-2.88,1.3-6.08-.07-8.94-1.19-2.45-3.42-4.28-5.97-5.17-.76-.27-1.64,.3-1.85,1.05-.23,.83,.28,1.58,1.05,1.85h0Z"/>
  <path class="cls-4" d="M187.78,44.79c1.15-1.46,2.84-2.24,4.63-2.3,2.2-.06,4.25,.85,6.02,2.09,.67,.46,1.67,.12,2.05-.54,.44-.75,.13-1.59-.54-2.05-2.23-1.55-4.97-2.63-7.73-2.49-2.49,.13-5.01,1.18-6.57,3.17-.5,.64-.62,1.5,0,2.12,.52,.52,1.62,.64,2.12,0h0Z"/>
  <rect class="cls-3" x="209.66" y="126.52" width="67.18" height="19.08" rx="6" ry="6" transform="translate(72.81 -84.47) rotate(23.08)"/>
  <path class="cls-6" d="M198.3,332.91c2.71,2.1,6.38,2.59,9.47,1,2.88-1.48,4.7-4.75,4.58-7.96-.03-.81-.67-1.5-1.5-1.5-.79,0-1.53,.69-1.5,1.5,.04,1.1-.19,2.11-.71,3.05s-1.26,1.71-2.23,2.24c-1.81,.99-4.37,.81-5.99-.45-.64-.5-1.5-.62-2.12,0-.52,.52-.64,1.62,0,2.12h0Z"/>
  <path class="cls-8" d="M187.18,307.2c7.56,1.81,13.46,8.27,14.7,15.93,.13,.8,1.13,1.25,1.85,1.05,.85-.23,1.18-1.04,1.05-1.85-1.39-8.62-8.31-16-16.79-18.02-1.88-.45-2.68,2.44-.8,2.89h0Z"/>
  <path class="cls-6" d="M105.13,297.92c-2.19,.11-4.3-.98-5.37-2.95-.53-.97-.66-1.99-.6-3.16,.02-.38,.2-1.1,.39-1.62,.07-.17,.14-.33,.28-.58,.17-.3,.36-.59,.57-.86,.49-.65,.1-1.68-.54-2.05-.77-.45-1.56-.11-2.05,.54-1.99,2.61-2.21,6.39-.65,9.25s4.77,4.59,7.96,4.44c.81-.04,1.5-.66,1.5-1.5,0-.78-.69-1.54-1.5-1.5h0Z"/>
  <path class="cls-6" d="M111.2,295.04c-2.11-.49-3.82-2.12-4.33-4.24-.47-1.97,.35-4.4,2.04-5.66,.65-.48,.98-1.3,.54-2.05-.37-.64-1.4-1.03-2.05-.54-2.74,2.05-4.17,5.47-3.46,8.87,.67,3.16,3.34,5.78,6.46,6.51,.79,.18,1.62-.25,1.85-1.05,.21-.76-.26-1.66-1.05-1.85h0Z"/>
  <g>
    <ellipse class="cls-4" cx="117.12" cy="317.89" rx="25.65" ry="20.17" transform="translate(-220.1 285.46) rotate(-64.28)"/>
    <ellipse class="cls-7" cx="117.13" cy="322.82" rx="19.23" ry="13.73" transform="translate(-224.54 288.25) rotate(-64.28)"/>
    <ellipse cx="116.64" cy="322.84" rx="14.53" ry="11.59" transform="translate(-224.83 287.83) rotate(-64.28)"/>
    <ellipse class="cls-4" cx="114.92" cy="308.62" rx="5.43" ry="4.72" transform="translate(-213 278.22) rotate(-64.28)"/>
    <ellipse class="cls-4" cx="122.51" cy="336.36" rx="3.45" ry="3" transform="translate(-233.69 300.77) rotate(-64.28)"/>
  </g>
  <path class="cls-6" d="M199.36,338.86c2.03,2.77,5.44,4.21,8.84,3.53,3.17-.64,5.81-3.29,6.57-6.41,.46-1.88-2.43-2.68-2.89-.8-.51,2.1-2.17,3.79-4.29,4.27-1.96,.45-4.39-.41-5.63-2.11-.48-.65-1.3-.98-2.05-.54-.64,.38-1.02,1.4-.54,2.05h0Z"/>
  <g>
    <ellipse class="cls-4" cx="179.24" cy="345.35" rx="25.65" ry="20.17" transform="translate(-209.41 326.64) rotate(-59.81)"/>
    <ellipse class="cls-7" cx="175.15" cy="348.11" rx="19.23" ry="13.73" transform="translate(-213.82 324.48) rotate(-59.81)"/>
    <ellipse cx="175.41" cy="348.52" rx="14.53" ry="11.59" transform="translate(-214.05 324.9) rotate(-59.81)"/>
    <ellipse class="cls-4" cx="188.15" cy="341.98" rx="5.43" ry="4.72" transform="translate(-202.06 332.67) rotate(-59.81)"/>
    <ellipse class="cls-4" cx="160.92" cy="351.24" rx="3.45" ry="3" transform="translate(-223.61 313.73) rotate(-59.81)"/>
  </g>
  <circle class="cls-1" cx="188.41" cy="393" r="15"/>
  <circle class="cls-1" cx="78.41" cy="348" r="15"/>
  <path class="cls-8" d="M111.58,362.44c2.03,4.86,4.49,9.93,8.7,13.29,3.91,3.12,8.61,4.36,13.57,4.38,3.44,.01,6.88-.49,10.26-1.09,1.6-.29,2.5-2.23,2.1-3.69-.46-1.68-2.09-2.38-3.69-2.1-3.16,.56-6.11,.97-9.51,.87-.72-.02-1.43-.08-2.15-.15-.85-.09,.6,.13-.22-.04-.33-.06-.66-.12-.98-.19-.63-.14-1.25-.31-1.86-.51-.3-.1-.59-.21-.88-.33,.7,.28-.1-.05-.24-.12-.52-.25-1.03-.54-1.51-.85-.26-.17-.51-.35-.77-.53-.27-.2-.25-.19,.05,.04-.12-.1-.25-.2-.37-.3-.93-.84-1.8-1.72-2.58-2.71,.4,.51-.27-.38-.33-.47-.21-.31-.42-.62-.62-.93-.37-.58-.72-1.17-1.05-1.77-.77-1.38-1.59-3.11-2.12-4.38-.62-1.49-1.99-2.56-3.69-2.1-1.41,.39-2.72,2.19-2.1,3.69h0Z"/>
  <path class="cls-8" d="M143.82,369.7c-.35,1.72-.32,3.42,.05,5.13,.49,2.23,1.45,4.36,2.39,6.44,.33,.74,1.41,.92,2.05,.54,.76-.44,.87-1.31,.54-2.05-.81-1.79-1.61-3.63-2.06-5.6-.04-.18-.08-.36-.11-.54-.02-.11-.09-.69-.05-.29-.03-.35-.07-.69-.07-1.04s0-.68,.04-1.01c0-.09,.02-.18,.03-.27,.02-.21-.07,.38,0,.03,.03-.18,.06-.36,.1-.54,.16-.79-.23-1.62-1.05-1.85-.74-.2-1.68,.25-1.85,1.05h0Z"/>
  <path class="cls-8" d="M117.79,357.6c-.27,.16-.54,.31-.83,.45-.07,.03-.14,.06-.21,.1-.16,.09,.31-.12,.06-.03-.15,.05-.29,.11-.44,.16-.3,.1-.61,.19-.93,.25-.16,.04-.33,.07-.5,.1-.05,0-.35,.07-.11,.02s-.09,.01-.12,.01c-1.86,.21-3.76,.07-5.62-.09-.78-.07-1.53,.74-1.5,1.5,.04,.87,.66,1.43,1.5,1.5,3.47,.29,7.11,.47,10.21-1.39,.67-.4,.98-1.37,.54-2.05s-1.33-.97-2.05-.54h0Z"/>
  <path class="cls-4" d="M225.02,320.97c1.53,4.03,3.26,8.06,4.03,12.33,.88,4.93,.1,9.93-1.15,14.72-.49,1.87,2.41,2.67,2.89,.8,1.34-5.15,2.08-10.41,1.25-15.7-.7-4.5-2.52-8.72-4.13-12.95-.68-1.79-3.58-1.01-2.89,.8h0Z"/>
  <path class="cls-4" d="M267.83,141.5c.63,.31,1.28,.58,1.88,.93,.15,.09,.3,.18,.44,.28,.23,.16-.03,.03-.04-.04,0,.03,.18,.16,.2,.18,.05,.05,.1,.11,.16,.16,.23,.23-.08-.14-.02-.03,.03,.06,.08,.12,.11,.18,.02,.04,.04,.08,.06,.12,.05,.1,.03,.05-.07-.16-.01,.04,.05,.18,.06,.21,.08,.27-.04,0,0-.08-.05,.11,.02,.45,0,.58,0,.05-.01,.35,0,.1s-.01,.05-.02,.11c-.04,.21-.09,.41-.15,.62-.05,.17-.11,.34-.17,.51-.04,.1-.07,.2-.11,.29-.1,.26,.09-.19,.01-.03-.15,.32-.3,.64-.48,.95-.39,.68-.18,1.67,.54,2.05s1.64,.19,2.05-.54c.45-.8,.83-1.66,1.08-2.55,.26-.95,.41-2.07,.08-3.02-.64-1.89-2.47-2.59-4.11-3.41-.7-.35-1.66-.21-2.05,.54-.36,.68-.21,1.68,.54,2.05h0Z"/>
  <path class="cls-8" d="M140.99,288.5c-6.58-6.13-16.48-7.68-24.66-4.01-1.76,.79-.23,3.38,1.51,2.59,6.9-3.1,15.51-1.6,21.02,3.54,1.41,1.31,3.54-.8,2.12-2.12h0Z"/>
</svg>