<?xml version="1.0" encoding="UTF-8"?>
<svg id="Lag_11" data-name="Lag 11" xmlns="http://www.w3.org/2000/svg" viewBox="0 0 98 53">
  <defs>
    <style>
      .cls-1 {
        fill: #fff;
      }

      .cls-2, .cls-3 {
        fill: #08ce99;
      }

      .cls-3 {
        stroke: #08ce99;
        stroke-miterlimit: 10;
        stroke-width: 7px;
      }
    </style>
  </defs>
  <path class="cls-2" d="M80.47,47.29c.15-4.47,.08-8.91-.19-13.38-.2-3.41-.37-6.96-1.33-10.26-2.45-8.41-9.01-15.77-16.93-19.44-6.91-3.21-14.9-3.91-22.32-2.16-8.96,2.11-16.7,8.81-20.34,17.22-1.76,4.06-2.41,8.14-2.45,12.54-.05,4.92,.06,9.84,.51,14.74,.21,2.34,1.92,4.62,4.5,4.5,2.25-.1,4.73-1.99,4.5-4.5-.37-4.08-.48-8.17-.51-12.27,0-1.7-.02-3.4,.08-5.1,.01-.25-.04-1.68,.16-1.81-.02,.01-.19,1.13-.06,.48,.03-.15,.05-.31,.08-.46,.07-.39,.16-.78,.25-1.16,.21-.83,.46-1.65,.76-2.45,.09-.23,.18-.46,.27-.69-.06,.16-.38,.82-.01,.05,.21-.45,.43-.9,.66-1.34,.41-.78,.87-1.54,1.36-2.27,.25-.37,.52-.72,.77-1.09,.38-.56-.45,.51,0,0,.21-.24,.41-.49,.61-.74,.59-.68,1.21-1.33,1.86-1.94,.33-.31,.66-.61,1.01-.9,.2-.17,.4-.33,.59-.49,.54-.45-.84,.58,.16-.11,.74-.52,1.49-1.01,2.28-1.46,.41-.23,.82-.45,1.24-.66,.07-.04,.97-.46,.55-.27-.29,.13,.75-.29,.74-.29,.92-.34,1.87-.62,2.82-.84,.43-.1,.86-.19,1.3-.27,.23-.04,.47-.07,.7-.12,.65-.12-1.11,.11-.05,0,1.63-.16,3.26-.26,4.89-.2,.5,.02,1,.05,1.5,.09,.25,.02,1.61,.18,.58,.04,.85,.12,1.69,.27,2.52,.46,1.04,.24,2.07,.53,3.08,.9,.19,.07,.38,.15,.57,.22-.96-.34,.44,.2,.64,.3,.85,.41,1.68,.86,2.48,1.36s1.59,1.03,2.35,1.61c-.67-.51,.21,.19,.42,.37,.39,.33,.76,.67,1.13,1.02,.69,.66,1.35,1.35,1.97,2.07,.13,.15,.89,1.09,.61,.72-.31-.41,.07,.1,.11,.15,.18,.26,.37,.51,.54,.78,.49,.73,.95,1.48,1.37,2.26,.21,.39,.41,.78,.6,1.17,.11,.23,.21,.45,.31,.68-.25-.58-.11-.26,.04,.14,.53,1.41,.86,2.84,1.12,4.33,.13,.75-.05-.32-.05-.39,0,.23,.06,.47,.08,.71,.05,.4,.08,.81,.12,1.21,.09,.99,.16,1.99,.22,2.99,.29,4.67,.38,9.3,.22,13.97-.08,2.36,2.13,4.61,4.5,4.5,2.51-.11,4.42-1.98,4.5-4.5h0Z"/>
  <path class="cls-3" d="M3.6,35.26c.05-2,.18-5.43,2.51-8.81,.53-.77,1.6-2.28,3.48-3.48,4.52-2.88,9.85-1.48,11-1.15-.08,8.77-.16,17.54-.24,26.32-1.42,.42-5.9,1.54-10.39-.62-.8-.39-2.56-1.25-4.05-3.11-2.46-3.06-2.37-6.56-2.31-9.15Z"/>
  <path class="cls-3" d="M94.35,35.49c-.11-2-.34-5.43-2.78-8.73-.55-.75-1.67-2.23-3.58-3.38-4.61-2.75-9.89-1.2-11.03-.84,.34,8.77,.69,17.53,1.03,26.3,1.43,.38,5.94,1.37,10.37-.92,.79-.41,2.53-1.33,3.96-3.22,2.36-3.13,2.17-6.63,2.03-9.21Z"/>
  <path class="cls-1" d="M81.81,26.79c.4-.05,.8-.08,1.21-.06,.08,0,.16,.01,.25,.02,.2,.01,.05-.03-.04-.01,.13-.03,.39,.07,.53,.1,.36,.08,.71,.2,1.05,.32,.18,.06,.36,.13,.53,.2,.05,.02,.17,.04,.21,.08-.11-.11-.18-.08,.01,0,.64,.28,1.22,.64,1.8,1.02-.1-.07-.15-.12-.02-.02,.08,.06,.15,.13,.22,.19,.12,.11,.23,.22,.34,.33,.07,.07,.13,.15,.2,.22,.11,.13,.05,.08-.02-.03,.11,.17,.22,.33,.32,.5,.38,.69,1.38,.97,2.05,.54s.95-1.32,.54-2.05c-.86-1.53-2.34-2.6-3.92-3.3-1.67-.74-3.41-1.31-5.26-1.07-.78,.1-1.54,.62-1.5,1.5,.03,.73,.67,1.61,1.5,1.5h0Z"/>
</svg>