<?xml version="1.0" encoding="UTF-8"?>
<svg id="Lag_4" data-name="Lag 4" xmlns="http://www.w3.org/2000/svg" viewBox="0 0 229.76 86.9">
  <defs>
    <style>
      .cls-1, .cls-2, .cls-3, .cls-4, .cls-5, .cls-6 {
        stroke-width: 0px;
      }

      .cls-2 {
        fill: #3abf36;
      }

      .cls-3 {
        fill: #f207cb;
      }

      .cls-4 {
        fill: #fff205;
      }

      .cls-5 {
        fill: #fff;
      }

      .cls-6 {
        fill: #f25d07;
      }
    </style>
  </defs>
  <g>
    <path class="cls-1" d="m22.74,75.12c0,7.76-3.79,11.64-11.37,11.64-3.84,0-6.69-.98-8.56-2.95-1.87-1.96-2.81-4.77-2.81-8.43V16.21C0,8.63,3.65,4.84,10.96,4.84h23.02c4.93,0,9.2.75,12.81,2.26,3.61,1.51,6.58,3.49,8.91,5.96s4.06,5.27,5.21,8.43c1.14,3.15,1.71,6.37,1.71,9.66s-.53,6.49-1.58,9.59c-1.05,3.11-2.6,5.87-4.66,8.29-2.06,2.42-4.57,4.38-7.54,5.89-2.97,1.51-6.37,2.26-10.21,2.26h-3.7c-6.85,0-10.28-3.06-10.28-9.18,0-2.19.41-3.86,1.23-5,.82-1.14,1.87-2.01,3.15-2.6,1.28-.59,2.65-1,4.11-1.23,1.46-.23,2.83-.55,4.11-.96,1.28-.41,2.37-1.03,3.29-1.85.91-.82,1.42-2.1,1.51-3.84,0-4.11-2.38-6.17-7.12-6.17h-12.19v48.77Z"/>
    <path class="cls-1" d="m71.87,86.76c-7.49,0-11.23-3.79-11.23-11.37V16.21c0-3.65,1.12-6.44,3.36-8.36,2.24-1.92,4.86-2.88,7.88-2.88s5.64.96,7.88,2.88c2.24,1.92,3.36,4.71,3.36,8.36v47.81h12.06c3.47,0,6.12,1.12,7.95,3.36,1.83,2.24,2.74,4.91,2.74,8.01s-.91,5.78-2.74,8.01c-1.83,2.24-4.48,3.36-7.95,3.36h-23.29Z"/>
    <path class="cls-1" d="m153.28,70.87h-24.25l-3.42,8.77c-1.01,2.56-2.4,4.41-4.18,5.55-1.78,1.14-3.72,1.71-5.82,1.71-1.55,0-3.04-.25-4.45-.75-1.42-.5-2.72-1.23-3.9-2.19-1.19-.96-2.12-2.08-2.81-3.36-.69-1.28-1.03-2.74-1.03-4.38s.32-3.15.96-4.52l26.99-59.59c1.19-2.56,2.79-4.47,4.79-5.75,2.01-1.28,4.06-1.92,6.17-1.92s4.13.64,6.1,1.92c1.96,1.28,3.45,3.2,4.45,5.75l24.8,59.59c.64,1.37.96,2.88.96,4.52,0,1.55-.34,2.99-1.03,4.32-.69,1.33-1.62,2.47-2.81,3.42-1.19.96-2.51,1.69-3.97,2.19-1.46.5-2.92.75-4.38.75-2.1,0-4.07-.57-5.89-1.71-1.83-1.14-3.2-2.99-4.11-5.55l-3.15-8.77Zm-17.12-17.81h10.96l-5.07-14.66-5.89,14.66Z"/>
    <path class="cls-1" d="m199.32,10.73c1.19-2.01,2.58-3.49,4.18-4.45,1.6-.96,3.31-1.44,5.14-1.44,1.46,0,2.92.32,4.38.96,1.46.64,2.76,1.46,3.91,2.47,1.14,1.01,2.05,2.19,2.74,3.56.69,1.37,1.03,2.79,1.03,4.25,0,1.92-.64,3.93-1.92,6.03l-18.08,29.18v24.25c0,3.65-1.12,6.44-3.36,8.36-2.24,1.92-4.86,2.88-7.88,2.88s-5.78-.96-8.01-2.88c-2.24-1.92-3.36-4.7-3.36-8.36v-24.25l-18.22-29.18c-1.28-2.1-1.92-4.11-1.92-6.03,0-1.46.34-2.88,1.03-4.25.68-1.37,1.6-2.56,2.74-3.56,1.14-1,2.44-1.83,3.9-2.47,1.46-.64,2.92-.96,4.38-.96,1.83,0,3.54.48,5.14,1.44,1.6.96,2.99,2.44,4.18,4.45l10,17.12,10-17.12Z"/>
  </g>
  <g>
    <path class="cls-4" d="m162.34,66.45h-24.25l-3.42,8.77c-1.01,2.56-2.4,4.41-4.18,5.55-1.78,1.14-3.72,1.71-5.82,1.71-1.55,0-3.04-.25-4.45-.75-1.42-.5-2.72-1.23-3.9-2.19-1.19-.96-2.12-2.08-2.81-3.36-.69-1.28-1.03-2.74-1.03-4.38s.32-3.15.96-4.52l26.99-59.59c1.19-2.56,2.79-4.47,4.79-5.75,2.01-1.28,4.06-1.92,6.17-1.92s4.13.64,6.1,1.92c1.96,1.28,3.45,3.2,4.45,5.75l24.8,59.59c.64,1.37.96,2.88.96,4.52,0,1.55-.34,2.99-1.03,4.32-.69,1.33-1.62,2.47-2.81,3.42-1.19.96-2.51,1.69-3.97,2.19-1.46.5-2.92.75-4.38.75-2.1,0-4.07-.57-5.89-1.71-1.83-1.14-3.2-2.99-4.11-5.55l-3.15-8.77Zm-17.12-17.81h10.96l-5.07-14.66-5.89,14.66Z"/>
    <path class="cls-6" d="m80.93,82.34c-7.49,0-11.23-3.79-11.23-11.37V11.78c0-3.65,1.12-6.44,3.36-8.36,2.24-1.92,4.86-2.88,7.88-2.88s5.64.96,7.88,2.88c2.24,1.92,3.36,4.71,3.36,8.36v47.81h12.06c3.47,0,6.12,1.12,7.95,3.36,1.83,2.24,2.74,4.91,2.74,8.01s-.91,5.78-2.74,8.01c-1.83,2.24-4.48,3.36-7.95,3.36h-23.29Z"/>
    <path class="cls-2" d="m208.38,6.3c1.19-2.01,2.58-3.49,4.18-4.45,1.6-.96,3.31-1.44,5.14-1.44,1.46,0,2.92.32,4.38.96,1.46.64,2.76,1.46,3.91,2.47,1.14,1.01,2.05,2.19,2.74,3.56.69,1.37,1.03,2.79,1.03,4.25,0,1.92-.64,3.93-1.92,6.03l-18.08,29.18v24.25c0,3.65-1.12,6.44-3.36,8.36-2.24,1.92-4.86,2.88-7.88,2.88s-5.78-.96-8.01-2.88c-2.24-1.92-3.36-4.7-3.36-8.36v-24.25l-18.22-29.18c-1.28-2.1-1.92-4.11-1.92-6.03,0-1.46.34-2.88,1.03-4.25.68-1.37,1.6-2.56,2.74-3.56,1.14-1,2.44-1.83,3.9-2.47,1.46-.64,2.92-.96,4.38-.96,1.83,0,3.54.48,5.14,1.44,1.6.96,2.99,2.44,4.18,4.45l10,17.12,10-17.12Z"/>
    <path class="cls-3" d="m31.8,70.69c0,7.76-3.79,11.64-11.37,11.64-3.84,0-6.69-.98-8.56-2.95-1.87-1.96-2.81-4.77-2.81-8.43V11.78C9.06,4.2,12.71.41,20.02.41h23.02c4.93,0,9.2.75,12.81,2.26,3.61,1.51,6.58,3.49,8.91,5.96s4.06,5.27,5.21,8.43c1.14,3.15,1.71,6.37,1.71,9.66s-.53,6.49-1.58,9.59c-1.05,3.11-2.6,5.87-4.66,8.29-2.06,2.42-4.57,4.38-7.54,5.89-2.97,1.51-6.37,2.26-10.21,2.26h-3.7c-6.85,0-10.28-3.06-10.28-9.18,0-2.19.41-3.86,1.23-5,.82-1.14,1.87-2.01,3.15-2.6,1.28-.59,2.65-1,4.11-1.23,1.46-.23,2.83-.55,4.11-.96,1.28-.41,2.37-1.03,3.29-1.85.91-.82,1.42-2.1,1.51-3.84,0-4.11-2.38-6.17-7.12-6.17h-12.19v48.77Z"/>
  </g>
  <path class="cls-5" d="m54.78,7.13c2.17.28,4.27,1.51,5.83,3.07,1.85,1.86,3.04,4.23,4.22,6.55.37.72,1.38.93,2.05.54.74-.43.91-1.33.54-2.05-1.34-2.65-2.76-5.32-4.93-7.39s-4.78-3.33-7.71-3.71c-.8-.1-1.5.76-1.5,1.5,0,.9.69,1.4,1.5,1.5h0Z"/>
  <path class="cls-5" d="m83.04,5.57c.35-.07-.06-.03-.08,0,0-.01.23-.02.24-.02.14,0,.35-.03.49.02l-.24-.03c.05,0,.11.02.16.03.07.01.13.03.2.05.14.04.29.12.43.14-.23-.1-.27-.12-.13-.05l.07.04c.07.04.15.07.22.12.15.08.28.17.42.27.23.15-.26-.23-.04-.03.05.05.11.09.16.14.12.11.24.23.35.35.04.04.09.13.14.16-.14-.18-.16-.21-.07-.09l.05.07c.1.15.2.3.29.46s.17.32.25.48c.02.05.15.29.03.07s.02.07.04.12c.25.68.4,1.38.51,2.09.05.35.4.73.69.9.32.19.8.27,1.16.15s.71-.34.9-.69c.2-.38.21-.73.15-1.16-.26-1.76-.88-3.52-2.13-4.83s-3.21-2.05-5.07-1.66c-.77.16-1.29,1.11-1.05,1.85.26.81,1.02,1.22,1.85,1.05h0Z"/>
  <path class="cls-5" d="m150.81,4.72c.44-.02.87,0,1.31.04-.2-.02-.16-.02.01,0,.1.02.2.03.29.05.19.04.39.09.58.14.21.06.42.13.62.2.09.03.19.07.28.11-.34-.14.03.02.08.04.38.18.74.39,1.09.62.08.06.16.11.25.17.03.02.3.23.13.1s.1.08.13.11c.09.08.18.16.27.24.31.28.58.6.85.91.12.14-.14-.2.02.03.07.1.14.19.2.29.11.17.21.33.31.51s.18.35.27.53c.17.35-.1-.29.03.08.04.11.08.22.12.34.25.74,1.04,1.31,1.85,1.05.74-.24,1.32-1.05,1.05-1.85-1.38-4.03-5.43-6.94-9.73-6.72-.78.04-1.54.66-1.5,1.5.03.78.66,1.54,1.5,1.5h0Z"/>
  <path class="cls-5" d="m176.54,5.41c.21,0,.41,0,.62.02.1,0,.21.01.31.02.08,0,.37.06.03,0,.41.07.81.15,1.21.26.18.05.35.11.53.17.1.03.19.07.29.11.27.1-.12-.06.04.02.37.18.74.36,1.1.57.16.1.32.2.47.3.09.06.17.12.25.18.11.08.2.16.04.03.32.27.62.54.91.83.14.15.28.3.41.46.05.06.1.13.16.19-.22-.27.04.05.06.09.24.34.45.69.64,1.06.36.7,1.39.96,2.05.54.71-.46.93-1.31.54-2.05-1.84-3.51-5.7-5.8-9.65-5.79-.78,0-1.54.69-1.5,1.5s.66,1.5,1.5,1.5h0Z"/>
  <path class="cls-5" d="m217.87,5.05c.08,0,.15.01.23.02l-.17-.02s.31.05.34.06c.23.04.46.1.68.16.21.06.41.12.61.2.04.01.4.15.2.07s.1.05.14.06c.42.2.83.43,1.22.69.1.06.19.13.29.2.23.16-.12-.1.02.01.18.15.36.3.53.46.16.15.31.3.45.46.08.09.16.17.23.26.04.04.27.35.06.06.27.36.51.73.72,1.13.05.09.09.17.13.26.03.06.17.39.07.15.1.26.19.52.26.79.03.14.06.27.09.41.07.32,0-.2.02.15,0,.28.02.55,0,.83-.07.78.74,1.53,1.5,1.5.87-.04,1.43-.66,1.5-1.5.21-2.46-1.14-4.97-2.9-6.62s-3.87-2.57-6.21-2.79c-.78-.07-1.53.74-1.5,1.5.04.88.66,1.42,1.5,1.5h0Z"/>
</svg>