<?xml version="1.0" encoding="UTF-8"?>
<svg xmlns="http://www.w3.org/2000/svg" xmlns:xlink="http://www.w3.org/1999/xlink" viewBox="0 0 193 195">
  <defs>
    <style>
      .cls-1 {
        fill: #f205b3;
      }

      .cls-2 {
        fill: #fff;
      }

      .cls-3 {
        fill: #201d73;
      }

      .cls-4 {
        stroke: #f205b3;
      }

      .cls-4, .cls-5 {
        fill: none;
        stroke-miterlimit: 10;
        stroke-width: 20px;
      }

      .cls-5 {
        stroke: #000;
      }

      .cls-6 {
        opacity: .2;
      }
    </style>
  </defs>
  <g id="Lag_13" data-name="Lag 13">
    <g class="cls-6">
      <image width="1248" height="1276" transform="translate(-499.5 158.01)" xlink:href="replay1.png"/>
    </g>
  </g>
  <g id="Lag_12" data-name="Lag 12">
    <g>
      <circle class="cls-3" cx="96.5" cy="97.01" r="96"/>
      <path class="cls-2" d="M112.64,21.12c.92,.05,1.84,.11,2.76,.19,.42,.04,.84,.08,1.27,.13,.19,.02,1.65,.22,.69,.08,1.66,.25,3.3,.55,4.93,.92s3.32,.84,4.95,1.36c.83,.27,1.66,.56,2.48,.86,.37,.14,.75,.28,1.12,.43,.19,.08,1.27,.54,.39,.15,2.9,1.28,5.7,2.77,8.3,4.59,.3,.21,.59,.43,.88,.64,.78,.55-.57-.48,.23,.17,.55,.45,1.09,.9,1.61,1.37,1.1,.99,2.12,2.05,3.08,3.17,1.53,1.8,4.81,1.69,6.36,0,1.76-1.92,1.63-4.44,0-6.36-9.39-11.07-24.98-16.01-39.04-16.71-2.35-.12-4.61,2.15-4.5,4.5,.11,2.54,1.98,4.37,4.5,4.5h0Z"/>
      <g>
        <path class="cls-5" d="M92.5,50.01c29.27,0,53,23.73,53,53s-23.73,53-53,53-53-23.73-53-53c0-7.32,1.48-14.29,4.17-20.63"/>
        <polygon points="17.39 88.09 62.47 97.22 46.22 57.19 17.39 88.09"/>
      </g>
      <g>
        <path class="cls-4" d="M97.07,44.68c29.27,0,53,23.73,53,53s-23.73,53-53,53-53-23.73-53-53c0-7.32,1.48-14.29,4.17-20.63"/>
        <polygon class="cls-1" points="21.96 82.76 67.04 91.89 50.79 51.87 21.96 82.76"/>
      </g>
    </g>
  </g>
</svg>