<?xml version="1.0" encoding="UTF-8"?>
<svg id="Lag_2" data-name="Lag 2" xmlns="http://www.w3.org/2000/svg" viewBox="0 0 378 177">
  <defs>
    <style>
      .cls-1, .cls-2, .cls-3, .cls-4 {
        stroke-width: 0px;
      }

      .cls-2 {
        fill: #201d73;
      }

      .cls-3 {
        fill: #fff;
      }

      .cls-4 {
        fill: #f205b3;
      }
    </style>
  </defs>
  <rect class="cls-1" x=".38" y="13.73" width="370" height="163" rx="63.44" ry="63.44"/>
  <rect class="cls-4" x="7.62" y=".27" width="370" height="163" rx="63.44" ry="63.44"/>
  <path class="cls-3" d="m312.47,17.27c2.06-.09,4.09-.01,6.15.19.34.04.26.03-.23-.03.25.04.51.08.76.12.5.09,1,.19,1.49.3.85.19,1.7.42,2.54.67,1.71.52,3.38,1.16,5.03,1.84-.88-.36.23.1.41.18.48.21.96.42,1.43.63.8.36,1.59.73,2.38,1.12,1.6.79,3.18,1.65,4.71,2.58.77.47,1.52.96,2.26,1.47.42.29.84.59,1.25.9,1.02.75-.67-.57.3.24,1.35,1.13,2.65,2.31,3.81,3.64.13.15,1.1,1.4.46.53.22.3.44.6.64.9.55.82,1.04,1.67,1.48,2.55,1.06,2.11,4.21,2.87,6.16,1.61,2.16-1.39,2.74-3.9,1.61-6.16-3.7-7.38-10.92-12.46-18.14-16.04-3.67-1.81-7.48-3.5-11.4-4.69-4.23-1.28-8.69-1.76-13.1-1.57-2.35.1-4.61,2-4.5,4.5.11,2.35,1.98,4.61,4.5,4.5h0Z"/>
  <path class="cls-1" d="m155.38,48.79v74.57c0,6.59,6.63,10.89,12.32,7.99l66.89-34.09c6.14-3.13,6.45-12.11.54-15.69l-66.89-40.48c-5.7-3.45-12.85.83-12.85,7.69Z"/>
  <path class="cls-2" d="m158.62,45.69v71.91c0,6.35,6.4,10.5,11.89,7.71l64.57-32.88c5.92-3.02,6.22-11.68.52-15.13l-64.57-39.04c-5.5-3.33-12.41.8-12.41,7.42Z"/>
</svg>