<?xml version="1.0" encoding="UTF-8"?>
<svg xmlns="http://www.w3.org/2000/svg" viewBox="0 0 294.76 124.46">
  <defs>
    <style>
      .cls-1 {
        fill: #f205b3;
      }

      .cls-2 {
        fill: #f26f05;
      }

      .cls-3 {
        fill: #ffe001;
      }

      .cls-4 {
        fill: #fff;
      }

      .cls-5 {
        fill: #ff0505;
      }

      .cls-6 {
        fill: #3abf36;
      }
    </style>
  </defs>
  <g id="Lag_2" data-name="Lag 2">
    <g>
      <rect x="0" y="5.12" width="289.29" height="119.33" rx="59.67" ry="59.67"/>
      <rect class="cls-1" x="5.47" y="0" width="289.29" height="119.33" rx="59.67" ry="59.67"/>
      <path class="cls-4" d="M243.3,14.77c1.59-.18,3.19-.27,4.8-.21,.66,.03,1.32,.1,1.98,.15-1.06-.08,.18,.03,.33,.06,.32,.05,.63,.11,.94,.18,2.76,.56,5.46,1.44,8.1,2.41,.6,.22,1.2,.46,1.8,.7-.94-.37,.25,.11,.35,.16,.3,.13,.59,.27,.88,.41,1.22,.58,2.42,1.22,3.57,1.94,.59,.37,1.16,.78,1.73,1.18,.43,.3-.51-.45,.12,.11,.28,.24,.56,.48,.84,.73,.45,.41,.88,.85,1.28,1.31,.12,.14,.78,1.07,.21,.22,.2,.3,.41,.59,.61,.89,1.28,1.97,4.05,2.97,6.16,1.61,1.97-1.27,2.98-4.04,1.61-6.16-3.73-5.77-9.78-9.1-16.03-11.51s-12.62-3.92-19.26-3.19c-2.33,.26-4.62,1.88-4.5,4.5,.1,2.22,1.99,4.78,4.5,4.5h0Z"/>
    </g>
  </g>
  <g id="Lag_4" data-name="Lag 4">
    <g>
      <path d="M78.66,79.46c0,5.03-2.85,7.54-8.54,7.54-2.88,0-5.03-.63-6.43-1.91-1.41-1.27-2.11-3.09-2.11-5.45V41.34c0-4.9,2.74-7.36,8.23-7.36h17.29c3.71,0,6.91,.49,9.62,1.46,2.71,.97,4.94,2.26,6.69,3.85,1.75,1.6,3.05,3.41,3.91,5.45,.86,2.04,1.29,4.12,1.29,6.25s-.4,4.2-1.18,6.21-1.95,3.8-3.5,5.36c-1.54,1.56-3.43,2.84-5.66,3.81s-4.78,1.46-7.67,1.46h-2.78c-5.14,0-7.72-1.98-7.72-5.94,0-1.42,.31-2.5,.93-3.23,.62-.74,1.41-1.3,2.37-1.69,.96-.38,1.99-.65,3.09-.8,1.09-.15,2.12-.36,3.09-.62,.96-.27,1.78-.67,2.47-1.2,.69-.53,1.06-1.36,1.13-2.48,0-2.66-1.79-3.99-5.35-3.99h-9.16v31.55Z"/>
      <path d="M116.16,86.99c-5.63,0-8.44-2.45-8.44-7.36V41.34c0-2.36,.84-4.17,2.52-5.41,1.68-1.24,3.66-1.86,5.92-1.86s4.23,.62,5.92,1.86c1.68,1.24,2.52,3.04,2.52,5.41v30.94h9.06c2.61,0,4.59,.72,5.97,2.17,1.37,1.45,2.06,3.18,2.06,5.18s-.69,3.74-2.06,5.19c-1.38,1.45-3.36,2.17-5.97,2.17h-17.5Z"/>
      <path d="M179.11,76.71h-18.22l-2.57,5.67c-.75,1.65-1.8,2.85-3.14,3.59-1.34,.74-2.8,1.11-4.37,1.11-1.17,0-2.28-.16-3.35-.49-1.06-.32-2.04-.8-2.93-1.42-.89-.62-1.59-1.34-2.11-2.17-.51-.83-.77-1.77-.77-2.84s.24-2.04,.72-2.92l20.28-38.56c.89-1.65,2.09-2.9,3.6-3.72,1.51-.83,3.05-1.24,4.63-1.24s3.1,.41,4.58,1.24,2.59,2.07,3.35,3.72l18.63,38.56c.48,.89,.72,1.86,.72,2.92,0,1-.26,1.94-.77,2.79-.51,.86-1.22,1.59-2.11,2.21-.89,.62-1.89,1.1-2.99,1.42-1.1,.33-2.2,.49-3.29,.49-1.58,0-3.05-.37-4.42-1.11-1.37-.74-2.4-1.94-3.09-3.59l-2.37-5.67Zm-12.86-11.52h8.23l-3.81-9.49-4.42,9.49Z"/>
      <path d="M215.34,37.8c.89-1.3,1.94-2.26,3.14-2.88,1.2-.62,2.49-.93,3.86-.93,1.1,0,2.2,.21,3.29,.62,1.1,.41,2.08,.95,2.93,1.59,.86,.65,1.54,1.42,2.06,2.31,.52,.89,.77,1.8,.77,2.75,0,1.24-.48,2.54-1.44,3.9l-13.59,18.88v15.69c0,2.36-.84,4.17-2.52,5.41-1.68,1.24-3.66,1.86-5.92,1.86s-4.34-.62-6.02-1.86c-1.68-1.24-2.52-3.04-2.52-5.41v-15.69l-13.69-18.88c-.96-1.36-1.44-2.66-1.44-3.9,0-.94,.26-1.86,.77-2.75,.52-.89,1.2-1.65,2.06-2.31,.86-.65,1.83-1.18,2.93-1.59,1.09-.41,2.2-.62,3.29-.62,1.37,0,2.66,.31,3.86,.93,1.2,.62,2.25,1.58,3.14,2.88l7.51,11.08,7.51-11.08Z"/>
      <path class="cls-5" d="M83.35,79.83c0,5.03-2.85,7.54-8.54,7.54-2.88,0-5.03-.63-6.43-1.91-1.41-1.27-2.11-3.09-2.11-5.45V41.72c0-4.9,2.74-7.36,8.23-7.36h17.29c3.71,0,6.91,.49,9.62,1.46,2.71,.97,4.94,2.26,6.69,3.85,1.75,1.6,3.05,3.41,3.91,5.45s1.29,4.12,1.29,6.25-.4,4.2-1.18,6.21-1.95,3.8-3.5,5.36c-1.54,1.56-3.43,2.84-5.66,3.81s-4.78,1.46-7.67,1.46h-2.78c-5.14,0-7.72-1.98-7.72-5.94,0-1.42,.31-2.5,.93-3.23,.62-.74,1.41-1.3,2.37-1.69,.96-.38,1.99-.65,3.09-.8,1.09-.15,2.12-.36,3.09-.62,.96-.27,1.78-.67,2.47-1.2,.69-.53,1.06-1.36,1.13-2.48,0-2.66-1.79-3.99-5.35-3.99h-9.16v31.55Z"/>
      <path class="cls-2" d="M120.85,87.37c-5.63,0-8.44-2.45-8.44-7.36V41.72c0-2.36,.84-4.17,2.52-5.41,1.68-1.24,3.66-1.86,5.92-1.86s4.23,.62,5.92,1.86c1.68,1.24,2.52,3.04,2.52,5.41v30.94h9.06c2.61,0,4.59,.72,5.97,2.17,1.37,1.45,2.06,3.18,2.06,5.18s-.69,3.74-2.06,5.19c-1.38,1.45-3.36,2.17-5.97,2.17h-17.5Z"/>
      <path class="cls-3" d="M183.8,77.09h-18.22l-2.57,5.67c-.75,1.65-1.8,2.85-3.14,3.59-1.34,.74-2.8,1.11-4.37,1.11-1.17,0-2.28-.16-3.35-.49-1.06-.32-2.04-.8-2.93-1.42-.89-.62-1.59-1.34-2.11-2.17-.51-.83-.77-1.77-.77-2.84s.24-2.04,.72-2.92l20.28-38.56c.89-1.65,2.09-2.9,3.6-3.72,1.51-.83,3.05-1.24,4.63-1.24s3.1,.41,4.58,1.24,2.59,2.07,3.35,3.72l18.63,38.56c.48,.89,.72,1.86,.72,2.92,0,1-.26,1.94-.77,2.79-.51,.86-1.22,1.59-2.11,2.21-.89,.62-1.89,1.1-2.99,1.42-1.1,.33-2.2,.49-3.29,.49-1.58,0-3.05-.37-4.42-1.11-1.37-.74-2.4-1.94-3.09-3.59l-2.37-5.67Zm-12.86-11.52h8.23l-3.81-9.49-4.42,9.49Z"/>
      <path class="cls-6" d="M220.03,38.17c.89-1.3,1.94-2.26,3.14-2.88,1.2-.62,2.49-.93,3.86-.93,1.1,0,2.2,.21,3.29,.62,1.1,.41,2.08,.95,2.93,1.59,.86,.65,1.54,1.42,2.06,2.31,.52,.89,.77,1.8,.77,2.75,0,1.24-.48,2.54-1.44,3.9l-13.59,18.88v15.69c0,2.36-.84,4.17-2.52,5.41-1.68,1.24-3.66,1.86-5.92,1.86s-4.34-.62-6.02-1.86c-1.68-1.24-2.52-3.04-2.52-5.41v-15.69l-13.69-18.88c-.96-1.36-1.44-2.66-1.44-3.9,0-.94,.26-1.86,.77-2.75,.52-.89,1.2-1.65,2.06-2.31,.86-.65,1.83-1.18,2.93-1.59,1.09-.41,2.2-.62,3.29-.62,1.37,0,2.66,.31,3.86,.93,1.2,.62,2.25,1.58,3.14,2.88l7.51,11.08,7.51-11.08Z"/>
      <path class="cls-4" d="M96.39,38.83c3.03,.18,6.02,1.53,7.94,3.92,.25,.32,.8,.26,1.06,0,.31-.31,.25-.74,0-1.06-2.17-2.69-5.6-4.16-9-4.36-.96-.06-.96,1.44,0,1.5h0Z"/>
      <path class="cls-4" d="M121.82,38.16c.17,.01,.34,.03,.51,.05,.05,0,.09,.01,.14,.02-.08-.01-.08-.01,0,0,.07,.01,.13,.02,.2,.03,.29,.05,.58,.11,.87,.2,.13,.04,.26,.08,.39,.13,.04,.01,.27,.12,.08,.03,.05,.02,.1,.05,.15,.07,.24,.11,.44,.26,.66,.4,.04,.03,.03,.02-.05-.04,.03,.02,.05,.04,.08,.07,.05,.04,.09,.08,.13,.12,.09,.08,.17,.17,.25,.26,.04,.05,.08,.09,.11,.14-.13-.16,0,0,.02,.04,.07,.1,.13,.21,.19,.31s.11,.23,.17,.34c.02,.05,.01,.03-.02-.05,.01,.04,.03,.07,.04,.11,.02,.06,.05,.13,.07,.19,.09,.28,.16,.57,.21,.87,.07,.4,.56,.62,.92,.52,.42-.12,.59-.52,.52-.92-.22-1.27-.81-2.42-1.86-3.21s-2.49-1.06-3.81-1.16c-.39-.03-.77,.37-.75,.75,.02,.43,.33,.72,.75,.75h0Z"/>
      <path class="cls-4" d="M176.11,37.32c.18,.01,.36,.03,.54,.05,.06,0,.05,0-.03,0,.05,0,.09,.01,.14,.02,.08,.01,.15,.02,.23,.04,.3,.05,.59,.12,.88,.21,.13,.04,.26,.08,.39,.13,.03,.01,.2,.09,.03,.01,.07,.03,.13,.06,.2,.09,.22,.11,.43,.24,.63,.38-.17-.12,0,0,.03,.03,.05,.04,.09,.08,.13,.12,.09,.08,.17,.17,.25,.26,.03,.03,.17,.22,.04,.05,.03,.04,.06,.08,.09,.13,.07,.1,.13,.2,.19,.31s.11,.22,.17,.34c-.09-.19,.01,.04,.03,.08,.02,.05,.04,.11,.06,.16,.09,.29,.16,.59,.21,.89,.07,.4,.56,.62,.92,.52,.42-.12,.59-.52,.52-.92-.21-1.28-.79-2.43-1.83-3.22s-2.48-1.07-3.8-1.18c-.39-.03-.77,.37-.75,.75,.02,.43,.33,.72,.75,.75h0Z"/>
      <path class="cls-4" d="M196.39,38.08c.62-.15,1.13-.25,1.74-.27,.27,0,.53,0,.8,.02,.08,0-.07-.01,.07,0,.07,.01,.15,.03,.22,.04,.12,.03,.24,.06,.36,.09,.29,.09,.31,.1,.56,.23,.11,.06,.21,.12,.32,.19,.05,.03,.1,.07,.15,.1,.03,.02,.14,.1,.06,.04,.45,.35,.79,.77,1.09,1.21,.23,.34,.66,.48,1.03,.27,.33-.2,.5-.69,.27-1.03-.74-1.11-1.72-2.03-3.01-2.44s-2.74-.24-4.05,.09c-.94,.23-.54,1.68,.4,1.45h0Z"/>
      <path class="cls-4" d="M225.31,38.74c.93-.55,1.94-.99,3.02-.97s2.02,.55,2.86,1.19c.32,.25,.84,.05,1.03-.27,.23-.39,.05-.78-.27-1.03-1.05-.8-2.28-1.37-3.61-1.4s-2.63,.5-3.77,1.18c-.83,.49-.08,1.79,.76,1.3h0Z"/>
    </g>
  </g>
</svg>